<?xml version="1.0" standalone="no"?>
<!DOCTYPE svg PUBLIC "-//W3C//DTD SVG 20010904//EN"
 "http://www.w3.org/TR/2001/REC-SVG-20010904/DTD/svg10.dtd">
<svg version="1.0" xmlns="http://www.w3.org/2000/svg"
 width="300.000000pt" height="271.000000pt" viewBox="0 0 300.000000 271.000000"
 preserveAspectRatio="xMidYMid meet">
<metadata>
Created by potrace 1.10, written by Peter Selinger 2001-2011
</metadata>
<g transform="translate(0.000000,271.000000) scale(0.100000,-0.100000)"
fill="#e6efff" stroke="none">
<path d="M1280 2438 l0 -263 -146 -145 c-80 -80 -152 -157 -160 -172 -10 -20
-14 -66 -14 -178 l0 -152 29 -29 29 -29 217 0 216 0 24 25 c35 34 35 96 0 130
-23 24 -29 25 -153 25 -132 0 -152 6 -152 42 0 23 24 34 92 41 172 17 323 170
349 353 11 80 13 84 44 84 33 0 41 -35 26 -119 -20 -113 -85 -222 -174 -292
-47 -37 -47 -38 -25 -50 13 -6 34 -22 48 -35 25 -23 31 -23 240 -26 118 -2
223 -7 233 -12 18 -8 18 0 15 175 -4 209 -11 233 -94 319 l-44 45 -2 260 -3
260 -297 3 -298 2 0 -262z"/>
<path d="M349 1564 c-29 -30 -31 -36 -19 -48 13 -11 686 -512 800 -594 l35
-26 -25 26 c-14 14 -153 139 -310 279 -157 139 -321 285 -366 325 l-81 73 -34
-35z"/>
<path d="M1634 1570 c-50 -20 -54 -41 -54 -247 0 -185 1 -193 23 -217 34 -38
95 -39 132 -1 25 24 25 25 25 219 0 188 -1 196 -22 220 -25 29 -72 40 -104 26z"/>
<path d="M1894 1570 c-47 -19 -54 -45 -54 -193 0 -175 14 -206 93 -207 27 0
45 7 62 25 24 23 25 28 25 174 0 82 -3 157 -6 166 -8 19 -55 45 -81 44 -10 0
-28 -4 -39 -9z"/>
<path d="M1470 1403 c-14 -7 -53 -13 -87 -13 l-63 0 0 -128 c0 -140 7 -162 57
-179 38 -13 89 2 108 31 13 19 15 51 13 162 l-3 140 -25 -13z"/>
<path d="M1052 1260 c3 -124 4 -131 29 -155 26 -27 65 -34 107 -21 40 13 52
54 52 186 l0 120 -96 0 -96 0 4 -130z"/>
<path d="M2154 1099 c-208 -157 -242 -185 -184 -152 56 32 415 246 419 250 6
4 -21 53 -29 53 -4 0 -97 -68 -206 -151z"/>
<path d="M472 1085 c-11 -23 -9 -27 11 -34 41 -16 484 -151 493 -151 12 1
-468 209 -482 210 -6 0 -16 -11 -22 -25z"/>
<path d="M2770 929 c-460 -80 -1085 -191 -1087 -193 -5 -4 30 -192 37 -199 7
-8 218 28 1005 169 137 25 251 46 252 48 2 2 2 50 1 107 l-3 104 -205 -36z"/>
<path d="M20 856 l0 -104 28 -6 c57 -12 1222 -216 1230 -216 7 0 55 202 49
206 -5 4 -1275 224 -1290 224 -15 0 -17 -12 -17 -104z"/>
<path d="M1550 558 c-19 -31 -19 -34 -2 -46 44 -34 51 -34 71 -1 23 37 21 43
-20 64 -28 15 -29 15 -49 -17z"/>
<path d="M2155 424 c9 -3 473 -102 504 -107 9 -1 17 10 22 31 4 21 3 32 -5 32
-6 0 -121 11 -256 25 -238 24 -286 28 -265 19z"/>
<path d="M1460 404 c-30 -9 -71 -19 -91 -25 l-37 -9 26 -98 c14 -53 27 -99 28
-101 4 -5 187 40 196 48 4 3 0 33 -8 66 -40 156 -26 142 -114 119z"/>
<path d="M1790 416 c0 -6 596 -406 604 -406 3 0 14 17 25 37 l19 38 -77 40
c-188 101 -571 296 -571 291z"/>
<path d="M727 345 c-126 -35 -231 -66 -234 -69 -4 -4 1 -25 23 -94 2 -9 53 13
161 69 221 116 300 159 288 158 -5 0 -113 -29 -238 -64z"/>
<path d="M981 250 c-117 -66 -216 -121 -218 -124 -7 -7 48 -97 57 -94 5 2 84
71 176 153 93 83 177 158 189 167 11 10 18 17 15 18 -3 0 -101 -54 -219 -120z"/>
<path d="M1700 254 c-18 -30 -31 -56 -29 -58 20 -14 100 -56 107 -56 6 0 24
24 41 52 l30 53 -52 32 c-29 18 -55 33 -59 33 -3 0 -21 -25 -38 -56z"/>
</g>
</svg>
