<svg width="707" height="387" viewBox="0 0 707 387" fill="none" xmlns="http://www.w3.org/2000/svg">
<path d="M316.191 22.4234V44.1049L301.414 56.0585C293.317 62.6536 286.029 69.0014 285.22 70.238C284.208 71.8868 283.803 75.679 283.803 84.9122V97.4429L286.738 99.8336L289.673 102.224H311.636H333.498L335.927 100.163C339.47 97.3605 339.47 92.2492 335.927 89.4463C333.599 87.4678 332.992 87.3853 320.442 87.3853C307.082 87.3853 305.057 86.8907 305.057 83.9229C305.057 82.0268 307.486 81.12 314.369 80.5429C331.777 79.1414 347.06 66.5283 349.692 51.4419C350.805 44.8468 351.008 44.517 354.145 44.517C357.485 44.517 358.295 47.4024 356.777 54.3273C354.753 63.6429 348.174 72.6288 339.166 78.3995C334.409 81.4497 334.409 81.5322 336.636 82.5214C337.951 83.0161 340.077 84.3351 341.494 85.4068C344.024 87.3029 344.631 87.3029 365.785 87.5502C377.728 87.7151 388.355 88.1273 389.367 88.5395C391.189 89.199 391.189 88.5395 390.885 74.1127C390.481 56.8829 389.772 54.9044 381.371 47.8146L376.918 44.1049L376.716 22.6707L376.412 1.23656L346.352 0.989239L316.191 0.824361V22.4234Z" fill="#E6EFFF"/>
<path d="M221.962 94.4752C219.027 96.9483 218.825 97.443 220.039 98.4322C221.355 99.3391 289.471 140.641 301.009 147.401L304.551 149.544L302.021 147.401C300.604 146.247 286.536 135.942 270.645 124.401C254.755 112.942 238.156 100.905 233.602 97.6078L225.403 91.5898L221.962 94.4752Z" fill="#E6EFFF"/>
<path d="M352.02 93.9804C346.959 95.6292 346.554 97.3604 346.554 114.343C346.554 129.594 346.656 130.254 348.882 132.232C352.324 135.365 358.497 135.447 362.242 132.315C364.773 130.336 364.773 130.254 364.773 114.26C364.773 98.7619 364.671 98.1024 362.546 96.1238C360.016 93.7331 355.259 92.8263 352.02 93.9804Z" fill="#E6EFFF"/>
<path d="M378.335 93.9805C373.578 95.5468 372.87 97.6902 372.87 109.891C372.87 124.318 374.287 126.874 382.282 126.956C385.015 126.956 386.837 126.379 388.558 124.895C390.987 122.999 391.088 122.587 391.088 110.551C391.088 103.791 390.784 97.6078 390.481 96.8658C389.671 95.2995 384.914 93.1561 382.282 93.2385C381.27 93.2385 379.448 93.5683 378.335 93.9805Z" fill="#E6EFFF"/>
<path d="M335.421 107.748C334.004 108.325 330.057 108.82 326.616 108.82H320.239V119.372C320.239 130.913 320.948 132.727 326.008 134.128C329.854 135.2 335.016 133.963 336.939 131.573C338.255 130.006 338.457 127.368 338.255 118.218L337.951 106.676L335.421 107.748Z" fill="#E6EFFF"/>
<path d="M293.114 119.536C293.418 129.759 293.519 130.336 296.049 132.314C298.681 134.54 302.628 135.117 306.879 134.046C310.928 132.974 312.142 129.594 312.142 118.712V108.819H302.426H292.709L293.114 119.536Z" fill="#E6EFFF"/>
<path d="M404.65 132.809C383.598 145.752 380.157 148.06 386.027 145.34C391.695 142.702 428.03 125.06 428.435 124.73C429.042 124.4 426.31 120.361 425.5 120.361C425.095 120.361 415.682 125.967 404.65 132.809Z" fill="#E6EFFF"/>
<path d="M234.411 133.963C233.298 135.859 233.5 136.189 235.525 136.766C239.674 138.085 284.511 149.215 285.422 149.215C286.637 149.132 238.055 131.985 236.638 131.902C236.031 131.902 235.019 132.809 234.411 133.963Z" fill="#E6EFFF"/>
<path d="M466.997 146.824C420.439 153.419 357.182 162.57 356.979 162.735C356.473 163.064 360.016 178.563 360.724 179.14C361.433 179.8 382.788 176.832 462.442 165.208C476.308 163.147 487.847 161.416 487.948 161.251C488.15 161.086 488.15 157.129 488.049 152.43L487.745 143.856L466.997 146.824Z" fill="#E6EFFF"/>
<path d="M188.663 152.842V161.416L191.497 161.91C197.266 162.899 315.179 179.717 315.988 179.717C316.697 179.717 321.555 163.064 320.948 162.735C320.442 162.405 191.902 144.268 190.384 144.268C188.866 144.268 188.663 145.258 188.663 152.842Z" fill="#E6EFFF"/>
<path d="M343.518 177.409C341.595 179.964 341.595 180.212 343.316 181.201C347.769 184.004 348.477 184.004 350.502 181.283C352.83 178.233 352.627 177.738 348.477 176.007C345.644 174.771 345.542 174.771 343.518 177.409Z" fill="#E6EFFF"/>
<path d="M404.751 188.456C405.662 188.703 452.625 196.864 455.762 197.277C456.673 197.359 457.483 196.452 457.989 194.721C458.394 192.99 458.293 192.083 457.483 192.083C456.876 192.083 445.236 191.176 431.573 190.022C407.484 188.043 402.626 187.714 404.751 188.456Z" fill="#E6EFFF"/>
<path d="M334.409 190.104C331.373 190.846 327.223 191.671 325.199 192.165L321.454 192.907L324.085 200.986C325.502 205.356 326.818 209.148 326.919 209.313C327.324 209.725 345.846 206.015 346.757 205.356C347.162 205.108 346.757 202.635 345.947 199.915C341.899 187.054 343.316 188.208 334.409 190.104Z" fill="#E6EFFF"/>
<path d="M367.809 189.115C367.809 189.61 428.131 222.585 428.941 222.585C429.245 222.585 430.358 221.184 431.471 219.535L433.394 216.403L425.601 213.105C406.573 204.779 367.809 188.703 367.809 189.115Z" fill="#E6EFFF"/>
<path d="M260.22 194.968C247.468 197.854 236.84 200.409 236.537 200.657C236.132 200.986 236.638 202.718 238.865 208.406C239.067 209.148 244.229 207.334 255.16 202.718C277.528 193.155 285.523 189.61 284.309 189.692C283.803 189.692 272.872 192.083 260.22 194.968Z" fill="#E6EFFF"/>
<path d="M285.928 202.8C274.086 208.241 264.066 212.775 263.864 213.023C263.156 213.6 268.722 221.019 269.633 220.772C270.139 220.607 278.135 214.919 287.446 208.159C296.859 201.316 305.361 195.133 306.576 194.391C307.689 193.567 308.397 192.99 308.094 192.907C307.79 192.907 297.871 197.359 285.928 202.8Z" fill="#E6EFFF"/>
<path d="M358.7 202.47C356.878 204.943 355.562 207.087 355.765 207.252C357.789 208.406 365.886 211.868 366.594 211.868C367.202 211.868 369.024 209.89 370.744 207.581L373.78 203.212L368.517 200.574C365.582 199.09 362.951 197.854 362.546 197.854C362.242 197.854 360.42 199.915 358.7 202.47Z" fill="#E6EFFF"/>
<path d="M101.114 313.01V296.934H121.012V248.585H101.114V232.509H131.749L147.886 248.585V296.934L131.749 313.01H101.114ZM70.0536 232.509H96.8672V313.01H70.0536V232.509ZM187.014 279.948V313.01H160.201V232.509H187.014V264.418H212.675V279.948H187.014ZM191.261 248.1V232.509H233.18V255.804H207.943V248.1H191.261ZM191.261 313.01V296.934H206.366V288.866H233.18V313.01H191.261ZM295.846 313.01V282.86H261.025L244.888 266.723V248.585L261.025 232.509H270.124V261.082H307.129L322.72 277.218V296.934L306.644 313.01H295.846ZM274.371 247.008V232.509H306.583L320.536 246.522V255.076H295.846V247.008H274.371ZM244.888 288.866H271.701V298.451H291.599V313.01H258.416L244.888 296.934V288.866ZM352.81 254.227H380.715V313.01H352.81V254.227ZM331.82 232.509H401.705V250.041H331.82V232.509ZM411.957 313.01V232.509H438.771V313.01H411.957ZM443.017 248.585V232.509H473.653L489.789 248.585V272.729L477.414 285.105L476.565 283.406L451.389 286.743L452.36 288.866H443.017V273.275H463.158V248.585H443.017ZM492.519 313.01H463.886L452.36 288.866H473.653L477.414 285.105L492.519 313.01ZM527.098 296.631H537.168V313.01H516.542L500.224 296.934V248.585L516.542 232.509H537.168V248.827H527.098V296.631ZM551.667 248.827H541.415V232.509H562.222L578.48 248.585V296.934L562.222 313.01H541.415V296.631H551.667V248.827ZM609.541 287.41L582.242 232.509H608.57L636.415 289.291V313.01H609.541V287.41ZM638.113 283.649L625.071 257.199L638.295 232.509H664.078L638.113 283.649Z" fill="#CD1CCC"/>
<path d="M31.182 147.409H67.2214V223.327H31.182V147.409ZM4.07402 119.361H94.3293V142.003H4.07402V119.361ZM106.003 201.155H116.423V141.455H106.003V119.361H161.472V141.455H151.052V201.155H161.472V223.327H106.003V201.155ZM211.301 223.327H197.512L176.672 202.565V140.123L197.512 119.361H211.301V223.327ZM216.785 140.123V119.361H253.686L274.448 140.123V161.042H239.819V140.123H216.785ZM216.785 223.327V202.565H239.819V187.366H274.448V202.565L253.686 223.327H216.785Z" fill="#00F393"/>
<path d="M422.288 147.966H458.328V223.884H422.288V147.966ZM395.18 119.918H485.436V142.56H395.18V119.918ZM552.971 212.524H518.968L526.176 191.919H544.979L517.166 119.918H550.934L592.379 223.884H557.358L552.971 212.524ZM509.723 223.884H476.269L513.406 124.619L528.761 165.908L509.723 223.884ZM635.313 223.884H621.524L600.684 203.122V140.68L621.524 119.918H635.313V223.884ZM640.797 140.68V119.918H677.698L698.46 140.68V161.599H663.831V140.68H640.797ZM640.797 223.884V203.122H663.831V187.923H698.46V203.122L677.698 223.884H640.797Z" fill="#00F393"/>
</svg>
