<svg width="1265" height="566" viewBox="0 0 1265 566" fill="none" xmlns="http://www.w3.org/2000/svg">
<path d="M565.744 40.248V79.1642L539.305 100.62C524.817 112.458 511.778 123.851 510.33 126.071C508.519 129.03 507.794 135.837 507.794 152.41V174.901L513.046 179.192L518.298 183.483H557.595H596.712L601.058 179.784C607.396 174.753 607.396 165.579 601.058 160.548C596.893 156.997 595.806 156.849 573.35 156.849C549.446 156.849 545.824 155.961 545.824 150.634C545.824 147.231 550.17 145.603 562.485 144.567C593.633 142.052 620.978 119.412 625.687 92.3336C627.679 80.496 628.041 79.9041 633.655 79.9041C639.631 79.9041 641.08 85.083 638.363 97.5126C634.741 114.233 622.97 130.362 606.853 140.72C598.341 146.195 598.341 146.343 602.325 148.118C604.68 149.006 608.483 151.374 611.018 153.297C615.545 156.701 616.632 156.701 654.481 157.145C675.85 157.441 694.865 158.18 696.675 158.92C699.935 160.104 699.935 158.92 699.392 133.025C698.668 102.1 697.4 98.5483 682.369 85.8229L674.401 79.1642L674.039 40.6919L673.495 2.21958L619.71 1.77566L565.744 1.47972V40.248Z" fill="#E6EFFF"/>
<path d="M397.146 169.574C391.894 174.013 391.532 174.901 393.705 176.677C396.059 178.304 517.936 252.438 538.58 264.571L544.919 268.418L540.391 264.571C537.856 262.5 512.684 244.003 484.252 223.287C455.82 202.72 426.121 181.116 417.972 175.197L403.303 164.395L397.146 169.574Z" fill="#E6EFFF"/>
<path d="M629.852 168.686C620.797 171.646 620.073 174.753 620.073 205.235C620.073 232.61 620.254 233.793 624.238 237.345C630.395 242.968 641.442 243.116 648.142 237.493C652.67 233.941 652.67 233.793 652.67 205.087C652.67 177.269 652.488 176.085 648.686 172.534C644.158 168.242 635.647 166.615 629.852 168.686Z" fill="#E6EFFF"/>
<path d="M676.936 168.686C668.425 171.498 667.157 175.345 667.157 197.245C667.157 223.139 669.692 227.727 683.999 227.875C688.888 227.875 692.148 226.839 695.227 224.175C699.573 220.772 699.754 220.032 699.754 198.428C699.754 186.295 699.211 175.197 698.667 173.865C697.219 171.054 688.707 167.207 683.999 167.355C682.188 167.355 678.928 167.946 676.936 168.686Z" fill="#E6EFFF"/>
<path d="M600.152 193.397C597.617 194.433 590.554 195.321 584.397 195.321H572.988V214.261C572.988 234.977 574.256 238.232 583.311 240.748C590.192 242.671 599.428 240.452 602.869 236.161C605.223 233.349 605.585 228.614 605.223 212.19L604.68 191.474L600.152 193.397Z" fill="#E6EFFF"/>
<path d="M524.455 214.557C524.998 232.905 525.179 233.941 529.707 237.493C534.415 241.488 541.478 242.524 549.084 240.6C556.328 238.676 558.501 232.61 558.501 213.077V195.321H541.116H523.731L524.455 214.557Z" fill="#E6EFFF"/>
<path d="M724.021 238.38C686.353 261.612 680.196 265.755 690.699 260.872C700.841 256.137 765.853 224.471 766.578 223.879C767.664 223.287 762.775 216.037 761.326 216.037C760.602 216.037 743.76 226.099 724.021 238.38Z" fill="#E6EFFF"/>
<path d="M419.42 240.452C417.428 243.855 417.791 244.447 421.413 245.483C428.837 247.851 509.062 267.827 510.692 267.827C512.865 267.679 425.94 236.901 423.405 236.753C422.318 236.753 420.507 238.38 419.42 240.452Z" fill="#E6EFFF"/>
<path d="M835.575 263.535C752.271 275.373 639.088 291.798 638.725 292.094C637.82 292.686 644.158 320.504 645.426 321.54C646.694 322.724 684.904 317.397 827.425 296.533C852.235 292.834 872.88 289.726 873.061 289.43C873.423 289.134 873.423 282.032 873.242 273.597L872.699 258.208L835.575 263.535Z" fill="#E6EFFF"/>
<path d="M337.566 274.337V289.726L342.637 290.614C352.959 292.39 563.933 322.576 565.382 322.576C566.65 322.576 575.342 292.686 574.256 292.094C573.35 291.502 343.361 258.948 340.645 258.948C337.928 258.948 337.566 260.724 337.566 274.337Z" fill="#E6EFFF"/>
<path d="M614.64 318.432C611.199 323.02 611.199 323.463 614.278 325.239C622.246 330.27 623.513 330.27 627.135 325.387C631.3 319.912 630.938 319.024 623.513 315.917C618.443 313.697 618.262 313.697 614.64 318.432Z" fill="#E6EFFF"/>
<path d="M724.202 338.26C725.832 338.704 809.859 353.353 815.473 354.093C817.103 354.241 818.552 352.614 819.457 349.506C820.182 346.399 820 344.771 818.552 344.771C817.465 344.771 796.639 343.143 772.192 341.072C729.091 337.521 720.399 336.929 724.202 338.26Z" fill="#E6EFFF"/>
<path d="M598.341 341.22C592.909 342.552 585.484 344.031 581.862 344.919L575.161 346.251L579.87 360.752C582.405 368.594 584.759 375.401 584.94 375.697C585.665 376.437 618.805 369.778 620.435 368.594C621.159 368.15 620.435 363.711 618.986 358.828C611.742 335.745 614.278 337.816 598.341 341.22Z" fill="#E6EFFF"/>
<path d="M658.102 339.444C658.102 340.332 766.034 399.52 767.483 399.52C768.026 399.52 770.019 397.005 772.011 394.045L775.451 388.422L761.507 382.504C727.461 367.559 658.102 338.704 658.102 339.444Z" fill="#E6EFFF"/>
<path d="M465.599 349.95C442.782 355.129 423.767 359.716 423.223 360.16C422.499 360.752 423.405 363.859 427.389 374.069C427.751 375.401 436.987 372.146 456.545 363.859C496.567 346.695 510.873 340.332 508.7 340.48C507.794 340.48 488.236 344.771 465.599 349.95Z" fill="#E6EFFF"/>
<path d="M511.597 364.007C490.409 373.774 472.481 381.912 472.119 382.356C470.851 383.392 480.811 396.709 482.441 396.265C483.347 395.969 497.653 385.759 514.314 373.626C531.156 361.344 546.367 350.246 548.541 348.914C550.533 347.435 551.8 346.399 551.257 346.251C550.714 346.251 532.966 354.241 511.597 364.007Z" fill="#E6EFFF"/>
<path d="M641.804 363.415C638.544 367.854 636.19 371.702 636.552 371.998C640.174 374.069 654.662 380.284 655.929 380.284C657.016 380.284 660.276 376.733 663.354 372.589L668.787 364.747L659.37 360.012C654.118 357.349 649.41 355.129 648.686 355.129C648.142 355.129 644.883 358.828 641.804 363.415Z" fill="#E6EFFF"/>
<path d="M181.134 563V534.145H216.848V447.362H181.134V418.507H236.121L265.085 447.362V534.145L236.121 563H181.134ZM125.384 418.507H173.511V563H125.384V418.507ZM335.317 503.657V563H287.189V418.507H335.317V475.782H381.376V503.657H335.317ZM342.939 446.491V418.507H418.18V460.32H372.883V446.491H342.939ZM342.939 563V534.145H370.052V519.663H418.18V563H342.939ZM530.66 563V508.883H468.159L439.195 479.919V447.362L468.159 418.507H484.492V469.793H550.913L578.897 498.757V534.145L550.042 563H530.66ZM492.114 444.531V418.507H549.933L574.977 443.66V459.013H530.66V444.531H492.114ZM439.195 519.663H487.323V536.867H523.038V563H463.477L439.195 534.145V519.663ZM632.905 457.489H682.992V563H632.905V457.489ZM595.23 418.507H720.667V449.976H595.23V418.507ZM739.069 563V418.507H787.197V563H739.069ZM794.819 447.362V418.507H849.807L878.771 447.362V490.699L856.558 512.912L855.033 509.863L809.845 515.852L811.588 519.663H794.819V491.679H830.969V447.362H794.819ZM883.671 563H832.276L811.588 519.663H849.807L856.558 512.912L883.671 563ZM945.736 533.601H963.811V563H926.79L897.499 534.145V447.362L926.79 418.507H963.811V447.798H945.736V533.601ZM989.835 447.798H971.433V418.507H1008.78L1037.96 447.362V534.145L1008.78 563H971.433V533.601H989.835V447.798ZM1093.71 517.05L1044.71 418.507H1091.97L1141.95 520.425V563H1093.71V517.05ZM1145 510.299L1121.59 462.824L1145.33 418.507H1191.6L1145 510.299Z" fill="#CD1CCC"/>
<path d="M55.9688 263.734H120.656V400H55.9688V263.734ZM7.3125 213.391H169.312V254.031H7.3125V213.391ZM190.266 360.203H208.969V253.047H190.266V213.391H289.828V253.047H271.125V360.203H289.828V400H190.266V360.203ZM379.266 400H354.516L317.109 362.734V250.656L354.516 213.391H379.266V400ZM389.109 250.656V213.391H455.344L492.609 250.656V288.203H430.453V250.656H389.109ZM389.109 400V362.734H430.453V335.453H492.609V362.734L455.344 400H389.109Z" fill="#00F393"/>
<path d="M755.756 264.734H820.443V401H755.756V264.734ZM707.1 214.391H869.1V255.031H707.1V214.391ZM990.318 380.609H929.287L942.225 343.625H975.975L926.053 214.391H986.662L1061.05 401H998.193L990.318 380.609ZM912.693 401H852.647L919.303 222.828L946.865 296.938L912.693 401ZM1138.12 401H1113.37L1075.96 363.734V251.656L1113.37 214.391H1138.12V401ZM1147.96 251.656V214.391H1214.19L1251.46 251.656V289.203H1189.3V251.656H1147.96ZM1147.96 401V363.734H1189.3V336.453H1251.46V363.734L1214.19 401H1147.96Z" fill="#00F393"/>
</svg>
