<svg width="225" height="58" viewBox="0 0 225 58" fill="none" xmlns="http://www.w3.org/2000/svg">
<path d="M16.4781 16.8812H35.5232V57H16.4781V16.8812ZM2.15292 2.05917H49.8484V14.0244H2.15292V2.05917Z" fill="#00F393"/>
<path d="M68.5898 16.8812H87.6349V57H68.5898V16.8812ZM54.2646 2.05917H101.96V14.0244H54.2646V2.05917Z" fill="#00F393"/>
<path d="M192.093 57V46.0284H205.673V13.0308H192.093V2.05917H213.001L224.014 13.0308V46.0284L213.001 57H192.093ZM170.895 2.05917H189.195V57H170.895V2.05917Z" fill="#CD1CCC"/>
<g clip-path="url(#clip0_122_696)">
<path d="M125.786 7.46858V12.6973L122.219 15.5801C120.264 17.1706 118.504 18.7015 118.309 18.9997C118.064 19.3973 117.967 20.3119 117.967 22.5386V25.5605L118.675 26.1371L119.384 26.7136H124.687H129.965L130.552 26.2166C131.407 25.5406 131.407 24.308 130.552 23.632C129.99 23.1549 129.843 23.135 126.813 23.135C123.587 23.135 123.098 23.0157 123.098 22.3C123.098 21.8427 123.685 21.624 125.347 21.4849C129.55 21.1469 133.24 18.105 133.875 14.4668C134.144 12.8763 134.193 12.7968 134.95 12.7968C135.757 12.7968 135.952 13.4926 135.585 15.1626C135.097 17.4092 133.508 19.5763 131.334 20.9679C130.185 21.7035 130.185 21.7234 130.723 21.962C131.04 22.0813 131.553 22.3994 131.896 22.6578C132.506 23.1151 132.653 23.1151 137.76 23.1748C140.644 23.2145 143.21 23.3139 143.454 23.4133C143.894 23.5724 143.894 23.4133 143.821 19.9341C143.723 15.7789 143.552 15.3018 141.524 13.592L140.448 12.6973L140.399 7.52822L140.326 2.3591L133.069 2.29945L125.786 2.25969V7.46858Z" fill="#E6EFFF"/>
<path d="M103.036 24.8448C102.327 25.4413 102.278 25.5605 102.572 25.7991C102.889 26.0178 119.335 35.9783 122.121 37.6086L122.976 38.1255L122.365 37.6086C122.023 37.3302 118.626 34.8451 114.79 32.0617C110.953 29.2982 106.946 26.3956 105.846 25.6003L103.867 24.149L103.036 24.8448Z" fill="#E6EFFF"/>
<path d="M134.437 24.7255C133.215 25.1232 133.117 25.5407 133.117 29.6362C133.117 33.3142 133.142 33.4733 133.679 33.9504C134.51 34.7059 136.001 34.7258 136.905 33.9703C137.516 33.4932 137.516 33.4733 137.516 29.6163C137.516 25.8787 137.492 25.7196 136.978 25.2425C136.367 24.6659 135.219 24.4472 134.437 24.7255Z" fill="#E6EFFF"/>
<path d="M140.79 24.7255C139.642 25.1032 139.471 25.6201 139.471 28.5626C139.471 32.0418 139.813 32.6581 141.743 32.678C142.403 32.678 142.843 32.5388 143.259 32.1809C143.845 31.7237 143.869 31.6243 143.869 28.7216C143.869 27.0914 143.796 25.6003 143.723 25.4213C143.527 25.0436 142.379 24.5267 141.743 24.5466C141.499 24.5466 141.059 24.6261 140.79 24.7255Z" fill="#E6EFFF"/>
<path d="M130.429 28.0456C130.087 28.1848 129.134 28.3041 128.303 28.3041H126.764V30.8489C126.764 33.6323 126.935 34.0697 128.157 34.4076C129.085 34.6661 130.332 34.3679 130.796 33.7913C131.114 33.4136 131.162 32.7774 131.114 30.5706L131.04 27.7872L130.429 28.0456Z" fill="#E6EFFF"/>
<path d="M120.215 30.8888C120.288 33.3541 120.313 33.4933 120.924 33.9704C121.559 34.5072 122.512 34.6464 123.538 34.3879C124.516 34.1295 124.809 33.3143 124.809 30.69V28.3043H122.463H120.117L120.215 30.8888Z" fill="#E6EFFF"/>
<path d="M147.144 34.0896C142.061 37.211 141.23 37.7677 142.648 37.1116C144.016 36.4754 152.789 32.2208 152.887 32.1413C153.033 32.0617 152.373 31.0876 152.178 31.0876C152.08 31.0876 149.808 32.4395 147.144 34.0896Z" fill="#E6EFFF"/>
<path d="M106.042 34.3679C105.773 34.8251 105.822 34.9047 106.311 35.0438C107.312 35.3619 118.138 38.0459 118.358 38.0459C118.651 38.026 106.921 33.8907 106.579 33.8708C106.433 33.8708 106.188 34.0895 106.042 34.3679Z" fill="#E6EFFF"/>
<path d="M162.197 37.4694C150.956 39.0599 135.683 41.2667 135.634 41.3065C135.512 41.386 136.367 45.1237 136.538 45.2628C136.71 45.4219 141.866 44.7062 161.097 41.9029C164.445 41.4059 167.231 40.9884 167.255 40.9486C167.304 40.9088 167.304 39.9545 167.28 38.8213L167.206 36.7537L162.197 37.4694Z" fill="#E6EFFF"/>
<path d="M94.9963 38.9208V40.9885L95.6806 41.1078C97.0734 41.3463 125.542 45.4021 125.738 45.4021C125.909 45.4021 127.082 41.3861 126.935 41.3066C126.813 41.227 95.7783 36.8532 95.4118 36.8532C95.0452 36.8532 94.9963 37.0917 94.9963 38.9208Z" fill="#E6EFFF"/>
<path d="M132.384 44.8453C131.92 45.4616 131.92 45.5212 132.335 45.7598C133.411 46.4358 133.582 46.4358 134.07 45.7797C134.632 45.0441 134.584 44.9248 133.582 44.5073C132.897 44.2091 132.873 44.2091 132.384 44.8453Z" fill="#E6EFFF"/>
<path d="M147.168 47.5094C147.388 47.569 158.727 49.5373 159.484 49.6367C159.704 49.6566 159.9 49.4379 160.022 49.0204C160.12 48.6029 160.095 48.3842 159.9 48.3842C159.753 48.3842 156.943 48.1655 153.644 47.8871C147.828 47.41 146.655 47.3305 147.168 47.5094Z" fill="#E6EFFF"/>
<path d="M130.185 47.9071C129.452 48.086 128.45 48.2848 127.961 48.4041L127.057 48.5831L127.692 50.5314C128.035 51.5851 128.352 52.4997 128.377 52.5394C128.474 52.6388 132.946 51.7442 133.166 51.5851C133.264 51.5255 133.166 50.9291 132.971 50.273C131.993 47.1715 132.335 47.4498 130.185 47.9071Z" fill="#E6EFFF"/>
<path d="M138.249 47.6684C138.249 47.7877 152.813 55.7402 153.009 55.7402C153.082 55.7402 153.351 55.4023 153.62 55.0046L154.084 54.2491L152.202 53.4539C147.608 51.4459 138.249 47.569 138.249 47.6684Z" fill="#E6EFFF"/>
<path d="M112.273 49.0802C109.194 49.776 106.628 50.3924 106.555 50.452C106.457 50.5315 106.579 50.949 107.117 52.3208C107.166 52.4998 108.412 52.0624 111.051 50.949C116.452 48.6428 118.382 47.7879 118.089 47.8078C117.967 47.8078 115.328 48.3844 112.273 49.0802Z" fill="#E6EFFF"/>
<path d="M118.48 50.9689C115.621 52.281 113.202 53.3745 113.153 53.4341C112.982 53.5733 114.326 55.3626 114.546 55.303C114.668 55.2632 116.598 53.8914 118.846 52.2612C121.119 50.611 123.172 49.1199 123.465 48.941C123.734 48.7422 123.905 48.603 123.831 48.5831C123.758 48.5831 121.363 49.6567 118.48 50.9689Z" fill="#E6EFFF"/>
<path d="M136.05 50.8893C135.61 51.4857 135.292 52.0027 135.341 52.0424C135.83 52.3208 137.785 53.1558 137.956 53.1558C138.102 53.1558 138.542 52.6786 138.958 52.1219L139.691 51.0682L138.42 50.432C137.711 50.0742 137.076 49.776 136.978 49.776C136.905 49.776 136.465 50.273 136.05 50.8893Z" fill="#E6EFFF"/>
</g>
<defs>
<clipPath id="clip0_122_696">
<rect width="73.3096" height="53.8782" fill="white" transform="translate(94.5076 2.06104)"/>
</clipPath>
</defs>
</svg>
